<svg xmlns="http://www.w3.org/2000/svg" viewBox="0 0 280.48 29.72"><defs><style>.cls-1{fill:#f8f8f8;}</style></defs><g id="Layer_2" data-name="Layer 2"><g id="Layer_1-2" data-name="Layer 1"><path class="cls-1" d="M8.23.64c3.92,0,5.92,1,7.25,2.13a8.08,8.08,0,0,1,2.81,6.4A7.76,7.76,0,0,1,15,15.86a7.89,7.89,0,0,1-3.11,1.24l8.87,12H13.81L6.22,17.65H5.54V29.08H0V.64ZM5.54,13.73H7.12c1.07,0,5.46-.13,5.46-4.31S8.23,5.16,7.21,5.16H5.54Z"/><path class="cls-1" d="M53.46,14.88c0,8.65-6.22,14.84-15.18,14.84S23.11,23.53,23.11,14.88,29.33,0,38.28,0,53.46,6.22,53.46,14.88Zm-5.71,0C47.75,9.12,43.83,5,38.28,5s-9.46,4.09-9.46,9.85,3.92,9.8,9.46,9.8S47.75,20.63,47.75,14.88Z"/><path class="cls-1" d="M64.12.64V18.5a6.16,6.16,0,0,0,1.36,4.22,6.19,6.19,0,0,0,9,0,6.16,6.16,0,0,0,1.37-4.22V.64h5.54V18a12,12,0,0,1-2.13,7.59c-2,2.69-5.63,4.1-9.3,4.1s-7.25-1.41-9.29-4.1A11.93,11.93,0,0,1,58.58,18V.64Z"/><path class="cls-1" d="M87.91,29.08V.64h3.84l17.3,19V.64h5.55V29.08h-3.84l-17.31-19v19Z"/><path class="cls-1" d="M128.49.64c4,0,7.42.43,10.58,2.77a14.09,14.09,0,0,1,5.45,11.47,13.58,13.58,0,0,1-5.71,11.47c-3.32,2.34-6.44,2.73-10.4,2.73h-7.33V.64ZM126.62,24.3h1.7a11.88,11.88,0,0,0,7-1.87,9.25,9.25,0,0,0,3.54-7.55,9.47,9.47,0,0,0-3.49-7.59,11.57,11.57,0,0,0-7-1.88h-1.7Z"/><path class="cls-1" d="M165.59,23.11H154.12l-2.52,6h-6L157.83.64h4.35l11.89,28.44h-6ZM164,18.59,159.92,8.36l-4,10.23Z"/><path class="cls-1" d="M184.43.64c1.58,0,4.65,0,6.95,1.79A7.41,7.41,0,0,1,194,8.31a6.08,6.08,0,0,1-3.2,5.59,6.68,6.68,0,0,1,3.71,1.79A7.25,7.25,0,0,1,196.58,21a7.59,7.59,0,0,1-2.43,5.75,10.41,10.41,0,0,1-7.2,2.31h-9.56V.64Zm-1.49,11.81h1.57c.86,0,4.31-.09,4.31-3.71,0-2.6-2-3.58-4.26-3.58h-1.62Zm0,12.11h2.38a7.64,7.64,0,0,0,3.8-.77,3.67,3.67,0,0,0,1.75-3.28,3.4,3.4,0,0,0-2.09-3.24,9,9,0,0,0-3.8-.56h-2Z"/><path class="cls-1" d="M230.69,14.88c0,8.65-6.23,14.84-15.18,14.84s-15.18-6.19-15.18-14.84S206.56,0,215.51,0,230.69,6.22,230.69,14.88Zm-5.72,0C225,9.12,221.05,5,215.51,5S206,9.12,206,14.88s3.93,9.8,9.47,9.8S225,20.63,225,14.88Z"/><path class="cls-1" d="M241.34.64V18.5a6.16,6.16,0,0,0,1.37,4.22,6.19,6.19,0,0,0,9,0,6.16,6.16,0,0,0,1.36-4.22V.64h5.54V18a11.93,11.93,0,0,1-2.13,7.59c-2,2.69-5.63,4.1-9.29,4.1s-7.25-1.41-9.3-4.1A12,12,0,0,1,235.8,18V.64Z"/><path class="cls-1" d="M274.08,5.41V29.08h-5.54V5.41h-6.39V.64h18.33V5.41Z"/></g></g></svg>